<svg width="200" height="200" viewBox="0 0 200 200" fill="none" xmlns="http://www.w3.org/2000/svg">
<rect width="200" height="200" rx="100" fill="#009951"/>
<path d="M50 156.25V129.688L132.344 47.5C133.594 46.25 135 45.3125 136.562 44.6875C138.125 44.0625 139.688 43.75 141.25 43.75C142.917 43.75 144.505 44.0625 146.016 44.6875C147.526 45.3125 148.854 46.25 150 47.5L158.75 56.25C160 57.3958 160.938 58.724 161.562 60.2344C162.188 61.7448 162.5 63.3333 162.5 65C162.5 66.5625 162.188 68.125 161.562 69.6875C160.938 71.25 160 72.6562 158.75 73.9062L76.5625 156.25H50ZM62.5 143.75H71.25L132.656 82.5L128.281 77.9688L123.75 73.5938L62.5 135V143.75ZM128.281 77.9688L123.75 73.5938L132.656 82.5L128.281 77.9688ZM112.5 156.25C120.208 156.25 127.344 154.323 133.906 150.469C140.469 146.615 143.75 141.25 143.75 134.375C143.75 130.625 142.76 127.396 140.781 124.688C138.802 121.979 136.146 119.635 132.812 117.656L123.594 126.875C125.99 127.917 127.865 129.062 129.219 130.312C130.573 131.562 131.25 132.917 131.25 134.375C131.25 136.771 129.349 138.932 125.547 140.859C121.745 142.786 117.396 143.75 112.5 143.75C110.729 143.75 109.245 144.349 108.047 145.547C106.849 146.745 106.25 148.229 106.25 150C106.25 151.771 106.849 153.255 108.047 154.453C109.245 155.651 110.729 156.25 112.5 156.25ZM53.5938 108.438L62.9688 99.0625C60.8854 98.2292 59.2448 97.3698 58.0469 96.4844C56.849 95.599 56.25 94.6875 56.25 93.75C56.25 92.5 57.1875 91.25 59.0625 90C60.9375 88.75 64.8958 86.8229 70.9375 84.2188C80.1042 80.2604 86.1979 76.6667 89.2188 73.4375C92.2396 70.2083 93.75 66.5625 93.75 62.5C93.75 56.7708 91.4583 52.2135 86.875 48.8281C82.2917 45.4427 76.25 43.75 68.75 43.75C64.0625 43.75 59.8698 44.5833 56.1719 46.25C52.474 47.9167 49.6354 49.9479 47.6562 52.3438C46.5104 53.6979 46.0417 55.2083 46.25 56.875C46.4583 58.5417 47.2396 59.8958 48.5938 60.9375C49.9479 62.0833 51.4583 62.5521 53.125 62.3438C54.7917 62.1354 56.1979 61.4583 57.3438 60.3125C58.8021 58.8542 60.4167 57.8125 62.1875 57.1875C63.9583 56.5625 66.1458 56.25 68.75 56.25C73.0208 56.25 76.1719 56.875 78.2031 58.125C80.2344 59.375 81.25 60.8333 81.25 62.5C81.25 63.9583 80.3385 65.2865 78.5156 66.4844C76.6927 67.6823 72.5 69.7917 65.9375 72.8125C57.6042 76.4583 51.8229 79.7656 48.5938 82.7344C45.3646 85.7031 43.75 89.375 43.75 93.75C43.75 97.0833 44.6354 99.9219 46.4062 102.266C48.1771 104.609 50.5729 106.667 53.5938 108.438Z" fill="white"/>
</svg>
