<svg width="200" height="200" viewBox="0 0 200 200" fill="none" xmlns="http://www.w3.org/2000/svg">
<rect width="200" height="200" rx="100" fill="#1976D2"/>
<path d="M100 162.5C96.5625 162.5 93.6198 161.276 91.1719 158.828C88.724 156.38 87.5 153.438 87.5 150H112.5C112.5 153.438 111.276 156.38 108.828 158.828C106.38 161.276 103.438 162.5 100 162.5ZM75 143.75V131.25H125V143.75H75ZM76.5625 125C69.375 120.729 63.6719 115 59.4531 107.812C55.2344 100.625 53.125 92.8125 53.125 84.375C53.125 71.3542 57.6823 60.2865 66.7969 51.1719C75.9115 42.0573 86.9792 37.5 100 37.5C113.021 37.5 124.089 42.0573 133.203 51.1719C142.318 60.2865 146.875 71.3542 146.875 84.375C146.875 92.8125 144.766 100.625 140.547 107.812C136.328 115 130.625 120.729 123.438 125H76.5625ZM80.3125 112.5H119.688C124.375 109.167 127.995 105.052 130.547 100.156C133.099 95.2604 134.375 90 134.375 84.375C134.375 74.7917 131.042 66.6667 124.375 60C117.708 53.3333 109.583 50 100 50C90.4167 50 82.2917 53.3333 75.625 60C68.9583 66.6667 65.625 74.7917 65.625 84.375C65.625 90 66.901 95.2604 69.4531 100.156C72.0052 105.052 75.625 109.167 80.3125 112.5Z" fill="white"/>
</svg>
