<svg width="200" height="200" viewBox="0 0 200 200" fill="none" xmlns="http://www.w3.org/2000/svg">
<rect width="200" height="200" rx="100" fill="#9E9D24"/>
<path d="M80 93.4375L93.4375 79.8438L84.6875 70.9375L77.8125 77.8125L69.0625 69.0625L75.7812 62.1875L68.75 55.1562L55.1562 68.75L80 93.4375ZM131.25 144.844L144.844 131.25L137.812 124.219L130.938 130.938L122.188 122.188L128.906 115.312L120 106.562L106.562 120L131.25 144.844ZM70.3125 156.25H43.75V129.688L71.0938 102.344L37.5 68.75L68.75 37.5L102.5 71.25L126.094 47.5C127.344 46.25 128.75 45.3125 130.312 44.6875C131.875 44.0625 133.49 43.75 135.156 43.75C136.823 43.75 138.438 44.0625 140 44.6875C141.562 45.3125 142.969 46.25 144.219 47.5L152.5 55.9375C153.75 57.1875 154.688 58.5938 155.312 60.1562C155.938 61.7188 156.25 63.3333 156.25 65C156.25 66.6667 155.938 68.2552 155.312 69.7656C154.688 71.276 153.75 72.6562 152.5 73.9062L128.906 97.6562L162.5 131.25L131.25 162.5L97.6562 128.906L70.3125 156.25ZM56.25 143.75H65L126.25 82.6562L117.344 73.75L56.25 135V143.75ZM121.875 78.2812L117.344 73.75L126.25 82.6562L121.875 78.2812Z" fill="white"/>
</svg>
