<svg width="200" height="200" viewBox="0 0 200 200" fill="none" xmlns="http://www.w3.org/2000/svg">
<rect width="200" height="200" rx="100" fill="#F57C00"/>
<path d="M60.3125 87.6562L72.5 92.8125C73.9583 89.8958 75.4688 87.0833 77.0312 84.375C78.5938 81.6667 80.3125 78.9583 82.1875 76.25L73.4375 74.5312L60.3125 87.6562ZM82.5 100.625L100.312 118.281C104.688 116.615 109.375 114.062 114.375 110.625C119.375 107.187 124.062 103.281 128.438 98.9062C135.729 91.6146 141.432 83.5156 145.547 74.6094C149.661 65.7031 151.458 57.5 150.938 50C143.438 49.4792 135.208 51.276 126.25 55.3906C117.292 59.5052 109.167 65.2083 101.875 72.5C97.5 76.875 93.5938 81.5625 90.1562 86.5625C86.7188 91.5625 84.1667 96.25 82.5 100.625ZM110.312 90.4687C107.917 88.0729 106.719 85.1302 106.719 81.6406C106.719 78.151 107.917 75.2083 110.312 72.8125C112.708 70.4167 115.677 69.2187 119.219 69.2187C122.76 69.2187 125.729 70.4167 128.125 72.8125C130.521 75.2083 131.719 78.151 131.719 81.6406C131.719 85.1302 130.521 88.0729 128.125 90.4687C125.729 92.8646 122.76 94.0625 119.219 94.0625C115.677 94.0625 112.708 92.8646 110.312 90.4687ZM113.281 140.625L126.406 127.5L124.688 118.75C121.979 120.625 119.271 122.318 116.562 123.828C113.854 125.339 111.042 126.823 108.125 128.281L113.281 140.625ZM162.188 38.5937C164.167 51.1979 162.943 63.4635 158.516 75.3906C154.089 87.3177 146.458 98.6979 135.625 109.531L138.75 125C139.167 127.083 139.062 129.115 138.438 131.094C137.812 133.073 136.771 134.792 135.312 136.25L109.062 162.5L95.9375 131.719L69.2188 105L38.4375 91.875L64.5312 65.625C65.9896 64.1667 67.7344 63.125 69.7656 62.5C71.7969 61.875 73.8542 61.7708 75.9375 62.1875L91.4062 65.3125C102.24 54.4792 113.594 46.8229 125.469 42.3437C137.344 37.8646 149.583 36.6146 162.188 38.5937ZM49.5312 124.844C53.1771 121.198 57.6302 119.349 62.8906 119.297C68.151 119.245 72.6042 121.042 76.25 124.687C79.8958 128.333 81.6927 132.786 81.6406 138.047C81.5885 143.307 79.7396 147.76 76.0938 151.406C73.4896 154.01 69.1406 156.25 63.0469 158.125C56.9531 160 48.5417 161.667 37.8125 163.125C39.2708 152.396 40.9375 143.984 42.8125 137.891C44.6875 131.797 46.9271 127.448 49.5312 124.844ZM58.4375 133.594C57.3958 134.635 56.3542 136.536 55.3125 139.297C54.2708 142.057 53.5417 144.844 53.125 147.656C55.9375 147.24 58.724 146.536 61.4844 145.547C64.2448 144.557 66.1458 143.542 67.1875 142.5C68.4375 141.25 69.1146 139.74 69.2188 137.969C69.3229 136.198 68.75 134.687 67.5 133.437C66.25 132.187 64.7396 131.589 62.9688 131.641C61.1979 131.693 59.6875 132.344 58.4375 133.594Z" fill="white"/>
</svg>
