<svg width="200" height="200" viewBox="0 0 200 200" fill="none" xmlns="http://www.w3.org/2000/svg">
<rect width="200" height="200" rx="100" fill="#8638E5"/>
<path d="M93.75 100C86.875 100 80.9896 97.5521 76.0938 92.6562C71.1979 87.7604 68.75 81.875 68.75 75C68.75 68.125 71.1979 62.2396 76.0938 57.3438C80.9896 52.4479 86.875 50 93.75 50C100.625 50 106.51 52.4479 111.406 57.3438C116.302 62.2396 118.75 68.125 118.75 75C118.75 81.875 116.302 87.7604 111.406 92.6562C106.51 97.5521 100.625 100 93.75 100ZM93.75 87.5C97.1875 87.5 100.13 86.276 102.578 83.8281C105.026 81.3802 106.25 78.4375 106.25 75C106.25 71.5625 105.026 68.6198 102.578 66.1719C100.13 63.724 97.1875 62.5 93.75 62.5C90.3125 62.5 87.3698 63.724 84.9219 66.1719C82.474 68.6198 81.25 71.5625 81.25 75C81.25 78.4375 82.474 81.3802 84.9219 83.8281C87.3698 86.276 90.3125 87.5 93.75 87.5ZM163.125 171.875L143.125 151.875C140.938 153.125 138.594 154.167 136.094 155C133.594 155.833 130.938 156.25 128.125 156.25C120.312 156.25 113.672 153.516 108.203 148.047C102.734 142.578 100 135.938 100 128.125C100 120.312 102.734 113.672 108.203 108.203C113.672 102.734 120.312 100 128.125 100C135.938 100 142.578 102.734 148.047 108.203C153.516 113.672 156.25 120.312 156.25 128.125C156.25 130.938 155.833 133.594 155 136.094C154.167 138.594 153.125 140.938 151.875 143.125L171.875 163.125L163.125 171.875ZM128.125 143.75C132.5 143.75 136.198 142.24 139.219 139.219C142.24 136.198 143.75 132.5 143.75 128.125C143.75 123.75 142.24 120.052 139.219 117.031C136.198 114.01 132.5 112.5 128.125 112.5C123.75 112.5 120.052 114.01 117.031 117.031C114.01 120.052 112.5 123.75 112.5 128.125C112.5 132.5 114.01 136.198 117.031 139.219C120.052 142.24 123.75 143.75 128.125 143.75ZM43.75 150V132.656C43.75 129.115 44.6354 125.833 46.4062 122.812C48.1771 119.792 50.625 117.5 53.75 115.938C59.0625 113.229 65.0521 110.938 71.7188 109.062C78.3854 107.188 85.7812 106.25 93.9062 106.25C92.6562 108.125 91.5885 110.13 90.7031 112.266C89.8177 114.401 89.1146 116.615 88.5938 118.906C82.3438 119.427 76.7708 120.495 71.875 122.109C66.9792 123.724 62.8646 125.417 59.5312 127.188C58.4896 127.708 57.6823 128.464 57.1094 129.453C56.5365 130.443 56.25 131.51 56.25 132.656V137.5H88.5938C89.1146 139.792 89.8177 141.979 90.7031 144.062C91.5885 146.146 92.6562 148.125 93.9062 150H43.75Z" fill="white"/>
</svg>
